<?xml version="1.0" standalone="no"?>
<!DOCTYPE svg PUBLIC "-//W3C//DTD SVG 1.1//EN"
  "http://www.w3.org/Graphics/SVG/1.1/DTD/svg11.dtd">
<svg width="11.994159698486328mm" height="7.322750091552734mm" viewBox="-28.01373291015625 38.87300491333007 11.994159698486328 7.322750091552734" xmlns="http://www.w3.org/2000/svg" version="1.1">
	<title>svgOutput</title>
	<desc>made with tinkercad</desc>
<path d="M -25.88042640686035 39.920330047607415 L -25.850046157836914 39.9360008239746 L -25.835487365722656 39.94350814819335 L -25.764328002929688 39.97993850708007 L -25.72512435913086 40.01069259643554 L -25.663028717041016 40.05974578857421 L -25.6611270904541 40.06124877929687 L -25.62818145751953 40.0999412536621 L -25.600000381469727 40.13244628906249 L -25.573143005371094 40.16342544555663 L -25.54703140258789 40.20768737792968 L -25.503206253051758 40.28295135498046 L -25.502822875976562 40.283611297607415 L -25.48493194580078 40.33115005493163 L -25.452762603759766 40.4159927368164 L -25.452285766601562 40.41724777221679 L -25.442880630493164 40.468547821044915 L -25.424917221069336 40.56408691406249 L -25.423131942749023 40.61541748046874 L -25.42013931274414 40.716560363769524 L -25.426803588867188 40.7671890258789 L -25.440505981445312 40.870830535888665 L -25.440645217895508 40.87187957763671 L -25.45479393005371 40.920730590820305 L -25.46603775024414 40.95999908447265 L -25.484827041625977 41.02561950683593 L -25.505327224731445 41.07022857666015 L -25.55233383178711 41.17144393920898 L -25.578916549682617 41.21170043945312 L -25.600000381469727 41.24344635009765 L -25.641366958618164 41.30573654174804 L -25.672426223754883 41.33996582031249 L -25.748371124267578 41.42278671264648 L -25.749147415161133 41.423633575439446 L -25.784507751464844 41.450847625732415 L -25.811742782592773 41.472000122070305 L -25.870548248291016 41.5176658630371 L -25.873268127441406 41.51977920532226 L -25.911087036132812 41.53930664062499 L -26.00881576538086 41.59146881103515 L -26.04799461364746 41.603984832763665 L -26.15213394165039 41.63703536987304 L -26.19149398803711 41.64184570312499 L -26.295827865600586 41.653457641601555 L -26.297040939331055 41.65359115600585 L -26.335506439208984 41.6496238708496 L -26.439132690429688 41.6396141052246 L -26.476072311401367 41.62857437133788 L -26.57356071472168 41.5988426208496 L -26.57474136352539 41.59848022460937 L -26.6085262298584 41.57897186279296 L -26.624000549316406 41.570178985595696 L -26.697711944580078 41.52828979492187 L -26.727907180786133 41.501655578613274 L -26.76134490966797 41.472000122070305 L -26.80391502380371 41.434246063232415 L -26.804662704467773 41.433582305908196 L -26.829612731933594 41.39990234374999 L -26.890989303588867 41.317878723144524 L -26.89158821105957 41.31708145141601 L -26.910581588745117 41.27748489379882 L -26.95585060119629 41.18413925170898 L -26.96868896484375 41.140178680419915 L -26.9966983795166 41.03885269165038 L -27.002199172973633 40.990764617919915 L -27.005590438842773 40.95999908447265 L -27.01373291015625 40.88614273071288 L -27.01099967956543 40.83502578735351 L -27.00559425354004 40.735061645507805 L -27.005353927612305 40.73061752319335 L -26.994096755981445 40.67913818359374 L -26.973201751708984 40.577529907226555 L -26.95469093322754 40.52629089355468 L -26.92577362060547 40.44800186157226 L -26.919837951660156 40.43193054199218 L -26.919342041015625 40.430591583251946 L -26.89274787902832 40.38223266601562 L -26.84508514404297 40.29479217529296 L -26.811796188354492 40.25009536743163 L -26.755998611450195 40.17693328857421 L -26.753273010253906 40.17335891723632 L -26.712583541870117 40.13461685180663 L -26.646272659301758 40.06998443603515 L -26.645841598510742 40.069561004638665 L -26.624000549316406 40.05411148071288 L -26.600814819335938 40.03771209716796 L -26.530288696289062 39.98764419555663 L -26.527576446533203 39.98571777343749 L -26.478351593017578 39.96249771118163 L -26.423622131347656 39.9360008239746 L -26.40032386779785 39.92472076416015 L -26.348865509033203 39.90972900390624 L -26.268735885620117 39.88688659667968 L -26.21669578552246 39.88129043579101 L -26.136146545410156 39.87300491333007 L -26.084579467773438 39.877490997314446 L -26.004899978637695 39.88444519042968 L -25.956151962280273 39.898303985595696 L -25.88119125366211 39.92010879516601 L -25.88042640686035 39.920330047607415 M -17.399309158325195 43.34277343749999 L -17.371858596801758 43.36479949951171 L -17.285905838012695 43.433032989501946 L -17.284679412841797 43.434009552001946 L -17.26174545288086 43.461067199707024 L -17.187137603759766 43.54763412475585 L -17.16912841796875 43.57802200317382 L -17.110139846801758 43.680130004882805 L -17.109636306762695 43.68099975585937 L -17.09746742248535 43.71413040161132 L -17.054218292236328 43.83016204833984 L -17.054000854492188 43.83074569702148 L -17.04770278930664 43.865345001220696 L -17.024131774902344 43.99263763427734 L -17.023069381713867 44.02721405029296 L -17.022945404052734 44.03200149536132 L -17.019611358642578 44.16020202636718 L -17.019573211669922 44.16172790527343 L -17.024433135986328 44.19572448730468 L -17.0432186126709 44.33417129516601 L -17.052322387695312 44.36590957641601 L -17.092296600341797 44.50370788574218 L -17.105663299560547 44.53287124633788 L -17.1673526763916 44.664653778076165 L -17.167579650878906 44.6651382446289 L -17.184659957885742 44.690540313720696 L -17.266395568847656 44.81279754638671 L -17.286060333251953 44.834331512451165 L -17.384906768798828 44.94155502319335 L -17.3858585357666 44.94258499145507 L -17.40793800354004 44.95950317382812 L -17.408000946044922 44.95955276489257 L -17.522918701171875 45.049114227294915 L -17.5360050201416 45.05599975585937 L -17.546266555786133 45.06140136718749 L -17.673280715942383 45.1277732849121 L -17.697269439697266 45.13540267944335 L -17.830820083618164 45.1778335571289 L -17.854780197143555 45.18072891235351 L -17.988767623901367 45.195545196533196 L -17.990673065185547 45.195755004882805 L -18.01401710510254 45.193122863769524 L -18.147565841674805 45.18031692504882 L -18.170305252075195 45.173599243164055 L -18.29685401916504 45.13510131835937 L -18.297510147094727 45.134902954101555 L -18.318147659301758 45.123062133789055 L -18.43199920654297 45.05868530273437 L -18.433027267456055 45.05810546874999 L -18.433496475219727 45.057842254638665 L -18.435564041137695 45.05599975585937 L -18.451833724975586 45.041519165039055 L -18.551475524902344 44.95363998413085 L -18.567039489746094 44.9330711364746 L -18.647567749023438 44.826187133789055 L -18.6479549407959 44.82567596435546 L -18.65997314453125 44.800849914550774 L -18.719512939453125 44.67923736572265 L -18.727785110473633 44.6509780883789 L -18.76573371887207 44.51826858520507 L -18.769386291503906 44.487197875976555 L -18.784404754638672 44.34939575195312 L -18.78274917602539 44.31621932983398 L -18.775876998901367 44.18017959594726 L -18.7757568359375 44.17776870727538 L -18.768417358398438 44.143257141113274 L -18.745935440063477 44.03200149536132 L -18.740999221801758 44.00757217407226 L -18.728660583496094 43.97346115112304 L -18.68166732788086 43.84493255615234 L -18.664043426513672 43.81167221069335 L -18.60032081604004 43.69396591186523 L -18.6001033782959 43.69356155395507 L -18.577003479003906 43.663215637207024 L -18.4997615814209 43.56134414672851 L -18.497955322265625 43.55895996093749 L -18.469892501831055 43.53208923339843 L -18.43199920654297 43.49497985839843 L -18.379446029663086 43.44350814819335 L -18.37914276123047 43.44321060180663 L -18.347835540771484 43.42097091674804 L -18.24778938293457 43.34964752197265 L -18.213369369506836 43.33293914794921 L -18.108280181884766 43.282451629638665 L -18.10633659362793 43.28152084350585 L -18.070192337036133 43.2713394165039 L -17.96002197265625 43.23918914794921 L -17.923362731933594 43.23524856567382 L -17.813488006591797 43.22448730468749 L -17.812557220458984 43.22439575195312 L -17.776185989379883 43.22755813598632 L -17.66657829284668 43.23658370971679 L -17.632244110107422 43.24639129638671 L -17.52825164794922 43.27670669555663 L -17.496654510498047 43.29270935058593 L -17.408000946044922 43.33830261230468 L -17.400144577026367 43.34234237670898 L -17.399309158325195 43.34277343749999 z" fill="none" stroke="rgb(255,0,0)" stroke-width="0.001mm" />
</svg>